<svg width="120" height="100" viewBox="0 0 120 100" fill="none" xmlns="http://www.w3.org/2000/svg">
<path d="M99.2623 45.669C99.2623 40.2183 92.6931 35.0528 82.6211 31.8495C84.9455 21.1828 83.9125 12.6965 79.3606 9.97954C78.3114 9.34222 77.0849 9.04032 75.7452 9.04032V12.7804C76.4876 12.7804 77.0849 12.9313 77.5852 13.2164C79.7803 14.5246 80.7328 19.5057 79.99 25.9124C79.8128 27.4889 79.5223 29.1492 79.1671 30.8432C76.0032 30.0381 72.5492 29.4176 68.9176 29.0151C66.7387 25.9124 64.4789 23.0948 62.2029 20.6294C67.4649 15.5476 72.4041 12.7636 75.7614 12.7636V9.02356C71.3224 9.02356 65.5119 12.3108 59.6368 18.013C53.7613 12.3443 47.9508 9.09065 43.5121 9.09065V12.8307C46.8532 12.8307 51.8083 15.598 57.0702 20.6462C54.8105 23.1116 52.5507 25.9124 50.404 29.0151C46.7561 29.4176 43.3021 30.0381 40.1386 30.8599C39.7672 29.1828 39.4929 27.556 39.299 25.9962C38.5407 19.5896 39.4766 14.6084 41.6559 13.2835C42.1399 12.9816 42.7693 12.8475 43.5121 12.8475V9.10741C42.1561 9.10741 40.9293 9.40931 39.8643 10.0466C35.3285 12.7636 34.3118 21.2331 36.652 31.8662C26.6125 35.0863 20.0755 40.2352 20.0755 45.669C20.0755 51.1199 26.6448 56.2855 36.7166 59.4886C34.3923 70.1555 35.4253 78.6415 39.9772 81.3586C41.0264 81.9958 42.2529 82.2977 43.6088 82.2977C48.0475 82.2977 53.8584 79.0106 59.7335 73.3083C65.6086 78.9772 71.4195 82.2309 75.8582 82.2309C77.2138 82.2309 78.4406 81.929 79.506 81.2915C84.0414 78.5744 85.0585 70.1048 82.7179 59.4721C92.7252 56.2687 99.2623 51.1031 99.2623 45.669ZM78.2471 34.4826C77.6498 36.6462 76.9074 38.8765 76.0679 41.1071C75.4063 39.7657 74.7122 38.4238 73.9536 37.082C73.2111 35.7404 72.42 34.4323 71.6292 33.1576C73.9211 33.5098 76.1325 33.9459 78.2471 34.4826ZM70.8543 52.344C69.5954 54.6084 68.3044 56.7551 66.9646 58.751C64.5594 58.9689 62.1225 59.0862 59.6689 59.0862C57.2316 59.0862 54.7943 58.9688 52.4057 58.7675C51.0659 56.7716 49.7583 54.6418 48.4994 52.3943C47.2726 50.1974 46.1591 47.9667 45.1421 45.7196C46.1429 43.4721 47.2726 41.2245 48.4835 39.0276C49.7424 36.7636 51.0334 34.6167 52.3732 32.6209C54.7784 32.4029 57.2153 32.2855 59.6689 32.2855C62.1062 32.2855 64.5435 32.4029 66.9321 32.6042C68.2719 34.6 69.5795 36.7299 70.8384 38.9774C72.0652 41.1743 73.1786 43.4049 74.1957 45.6525C73.1786 47.8996 72.0652 50.1471 70.8543 52.344ZM76.0679 50.164C76.9152 52.3497 77.6586 54.5772 78.2955 56.8387C76.1808 57.3754 73.9536 57.8284 71.6454 58.1805C72.4362 56.8893 73.227 55.5644 73.9698 54.2057C74.7122 52.8642 75.4063 51.5055 76.0679 50.164ZM59.701 68.0591C58.1999 66.4487 56.6988 64.6542 55.214 62.6921C56.6667 62.7592 58.1516 62.8095 59.6527 62.8095C61.17 62.8095 62.6711 62.7761 64.14 62.6921C62.7545 64.5629 61.2727 66.3545 59.701 68.0591ZM47.6923 58.1805C45.4005 57.8284 43.1891 57.3922 41.0748 56.8556C41.6718 54.6921 42.4145 52.4614 43.2537 50.2308C43.9156 51.5726 44.6097 52.9144 45.368 54.2559C46.1267 55.5977 46.9016 56.9058 47.6923 58.1805ZM59.6205 23.2793C61.1216 24.8893 62.6227 26.6839 64.1075 28.6461C62.6548 28.579 61.17 28.5287 59.6689 28.5287C58.1516 28.5287 56.6505 28.5623 55.1819 28.6461C56.5673 26.7754 58.049 24.9838 59.6205 23.2793ZM47.6761 33.1576C46.8853 34.449 46.0945 35.774 45.3521 37.1323C44.6097 38.4741 43.9156 39.8159 43.2537 41.1574C42.4063 38.9718 41.663 36.7441 41.0264 34.4826C43.1407 33.9627 45.368 33.5098 47.6761 33.1576ZM33.0688 54.1554C27.355 51.6229 23.6588 48.3024 23.6588 45.669C23.6588 43.0359 27.355 39.6986 33.0688 37.1829C34.4569 36.5622 35.9742 36.0088 37.5399 35.4889C38.4599 38.776 39.6704 42.1973 41.1715 45.7027C39.6867 49.1912 38.492 52.5957 37.5883 55.8663C35.9905 55.3461 34.4731 54.7761 33.0688 54.1554ZM41.7526 78.1218C39.5575 76.8137 38.605 71.8326 39.3478 65.4257C39.5253 63.8494 39.8155 62.1888 40.1707 60.4948C43.3345 61.3 46.7886 61.9207 50.4202 62.3231C52.5991 65.4257 54.8589 68.2432 57.1348 70.7086C51.8729 75.7906 46.9337 78.5744 43.5764 78.5744C42.8502 78.5579 42.237 78.4068 41.7526 78.1218ZM80.0387 65.342C80.797 71.7486 79.8612 76.7297 77.6819 78.0546C77.1979 78.3565 76.5684 78.4908 75.8257 78.4908C72.4846 78.4908 67.5295 75.7235 62.2675 70.6753C64.5273 68.2098 66.787 65.4092 68.9338 62.3062C72.5817 61.9038 76.0357 61.2831 79.1992 60.4614C79.5706 62.1554 79.8612 63.7823 80.0387 65.342ZM86.2528 54.1554C84.8647 54.7761 83.3473 55.3296 81.7816 55.8494C80.8616 52.5623 79.6511 49.1409 78.15 45.6356C79.6352 42.1471 80.8295 38.7426 81.7333 35.4721C83.3315 35.992 84.8484 36.5622 86.269 37.1829C91.9828 39.7151 95.679 43.0359 95.679 45.669C95.6628 48.3024 91.9666 51.6397 86.2528 54.1554Z" fill="#61DAFB"/>
<path d="M59.6527 53.3337C63.7268 53.3337 67.0292 49.9022 67.0292 45.6689C67.0292 41.436 63.7268 38.0045 59.6527 38.0045C55.5789 38.0045 52.2764 41.436 52.2764 45.6689C52.2764 49.9022 55.5789 53.3337 59.6527 53.3337ZM23.6712 95.4944H21.2362V99.8518H19.8621V89.0803H23.2939C24.4615 89.0803 25.3586 89.3567 25.9851 89.9091C26.6164 90.4612 26.9321 91.2652 26.9321 92.3205C26.9321 92.9915 26.7565 93.5757 26.4052 94.0742C26.0587 94.5722 25.5746 94.9446 24.9528 95.191L27.3878 99.7629V99.8518H25.9211L23.6712 95.4944ZM21.2362 94.3329H23.3366C24.0153 94.3329 24.5541 94.1503 24.9528 93.7854C25.3562 93.4205 25.5579 92.9322 25.5579 92.3205C25.5579 91.6549 25.3657 91.1445 24.9813 90.7893C24.6015 90.4342 24.0509 90.2541 23.3294 90.2493H21.2362V94.3329ZM31.8449 99.9999C30.8005 99.9999 29.9509 99.6448 29.2959 98.9345C28.6408 98.2193 28.3133 97.2649 28.3133 96.0715V95.8199C28.3133 95.026 28.4581 94.3183 28.7476 93.6969C29.0419 93.0702 29.4501 92.5819 29.9722 92.232C30.4991 91.8769 31.0687 91.6991 31.681 91.6991C32.6826 91.6991 33.4611 92.0419 34.0162 92.7274C34.5717 93.413 34.8492 94.3944 34.8492 95.6718V96.2414H29.6305C29.6494 97.0309 29.8702 97.6695 30.2926 98.1578C30.7198 98.6408 31.2609 98.8827 31.916 98.8827C32.3812 98.8827 32.775 98.7841 33.0976 98.5868C33.4207 98.3896 33.7029 98.1282 33.9451 97.8027L34.7496 98.4537C34.1039 99.4843 33.1359 99.9999 31.8449 99.9999ZM31.681 92.8238C31.1494 92.8238 30.7032 93.026 30.3425 93.4302C29.9817 93.83 29.7586 94.3922 29.6732 95.1171H33.5322V95.0136C33.4943 94.3183 33.3138 93.7805 32.9912 93.4006C32.6681 93.0162 32.2314 92.8238 31.681 92.8238ZM41.1362 99.8518C41.06 99.6939 40.9983 99.413 40.951 99.0084C40.3385 99.6692 39.6076 99.9999 38.758 99.9999C37.9986 99.9999 37.3746 99.7779 36.8855 99.3339C36.4015 98.885 36.1594 98.3179 36.1594 97.6324C36.1594 96.7991 36.4633 96.1529 37.0707 95.6943C37.6828 95.2304 38.5422 94.9986 39.6481 94.9986H40.9297V94.3701C40.9297 93.8915 40.7918 93.5116 40.5168 93.2307C40.2414 92.9446 39.8354 92.8017 39.299 92.8017C38.8291 92.8017 38.4354 92.9247 38.1174 93.1715C37.7994 93.4179 37.6402 93.7164 37.6402 94.0667H36.316C36.316 93.6673 36.4514 93.2825 36.7217 92.9123C36.9971 92.5377 37.3674 92.2418 37.8326 92.0246C38.3025 91.8079 38.8172 91.6991 39.3774 91.6991C40.2652 91.6991 40.9604 91.9309 41.4635 92.3948C41.9666 92.8534 42.2276 93.4872 42.2467 94.2958V97.98C42.2467 98.7151 42.3369 99.2994 42.5174 99.7333V99.8518H41.1362ZM38.9504 98.8088C39.3633 98.8088 39.7549 98.6978 40.1252 98.4758C40.4952 98.2538 40.7633 97.9654 40.9297 97.6103V95.968H39.8971C38.2834 95.968 37.4764 96.4586 37.4764 97.44C37.4764 97.869 37.6143 98.2047 37.8893 98.4462C38.1647 98.6877 38.5184 98.8088 38.9504 98.8088ZM47.4014 98.8827C47.8714 98.8827 48.2821 98.7346 48.6333 98.4387C48.9844 98.1428 49.179 97.773 49.2169 97.329H50.4632C50.4393 97.7877 50.2874 98.2242 50.0073 98.6386C49.7272 99.053 49.3522 99.3834 48.8823 99.6298C48.4171 99.8765 47.9237 99.9999 47.4014 99.9999C46.3526 99.9999 45.5171 99.6373 44.8952 98.9124C44.2784 98.1822 43.9698 97.1861 43.9698 95.9234V95.6943C43.9698 94.915 44.1073 94.2219 44.3827 93.6155C44.6581 93.0087 45.0518 92.5377 45.5647 92.2024C46.0819 91.8668 46.6919 91.6991 47.3942 91.6991C48.2583 91.6991 48.9751 91.968 49.5446 92.5058C50.1188 93.0432 50.4249 93.7411 50.4632 94.5992H49.2169C49.179 94.0813 48.9891 93.6571 48.6473 93.3267C48.3106 92.9915 47.8927 92.8238 47.3942 92.8238C46.7251 92.8238 46.2053 93.0751 45.835 93.5784C45.4698 94.0764 45.2868 94.7991 45.2868 95.746V96.0048C45.2868 96.927 45.4698 97.6373 45.835 98.1353C46.2006 98.6337 46.7229 98.8827 47.4014 98.8827ZM53.731 89.9091V91.8473H55.1692V92.9052H53.731V97.869C53.731 98.1897 53.7952 98.4312 53.9233 98.594C54.0515 98.7518 54.2698 98.831 54.5784 98.831C54.73 98.831 54.939 98.8013 55.2046 98.7421V99.8518C54.8581 99.9504 54.5214 99.9999 54.1937 99.9999C53.6054 99.9999 53.1614 99.8147 52.8622 99.4449C52.5634 99.0751 52.414 98.5497 52.414 97.869V92.9052H51.011V91.8473H52.414V89.9091H53.731ZM68.5047 99.8518H67.1303L61.9117 91.5514V99.8518H60.5376V89.0803H61.9117L67.1447 97.4179V89.0803H68.5047V99.8518ZM75.4821 99.8518C75.4059 99.6939 75.3442 99.413 75.2969 99.0084C74.6844 99.6692 73.9536 99.9999 73.1039 99.9999C72.3446 99.9999 71.7202 99.7779 71.2315 99.3339C70.7475 98.885 70.5053 98.3179 70.5053 97.6324C70.5053 96.7991 70.8088 96.1529 71.4166 95.6943C72.0287 95.2304 72.8881 94.9986 73.994 94.9986H75.2756V94.3701C75.2756 93.8915 75.1377 93.5116 74.8624 93.2307C74.5873 92.9446 74.1813 92.8017 73.645 92.8017C73.175 92.8017 72.7813 92.9247 72.4633 93.1715C72.1453 93.4179 71.9862 93.7164 71.9862 94.0667H70.6619C70.6619 93.6673 70.7973 93.2825 71.0676 92.9123C71.343 92.5377 71.7133 92.2418 72.1785 92.0246C72.6485 91.8079 73.1631 91.6991 73.7233 91.6991C74.6108 91.6991 75.3063 91.9309 75.8094 92.3948C76.3125 92.8534 76.5735 93.4872 76.5926 94.2958V97.98C76.5926 98.7151 76.6829 99.2994 76.8633 99.7333V99.8518H75.4821ZM73.2963 98.8088C73.7092 98.8088 74.1008 98.6978 74.4711 98.4758C74.8411 98.2538 75.1092 97.9654 75.2756 97.6103V95.968H74.243C72.6293 95.968 71.8223 96.4586 71.8223 97.44C71.8223 97.869 71.9602 98.2047 72.2352 98.4462C72.5106 98.6877 72.8643 98.8088 73.2963 98.8088ZM80.4444 89.9091V91.8473H81.8827V92.9052H80.4444V97.869C80.4444 98.1897 80.5087 98.4312 80.6368 98.594C80.7649 98.7518 80.9833 98.831 81.2919 98.831C81.4435 98.831 81.6524 98.8013 81.9184 98.7421V99.8518C81.5716 99.9504 81.2348 99.9999 80.9071 99.9999C80.3188 99.9999 79.8749 99.8147 79.5757 99.4449C79.2768 99.0751 79.1274 98.5497 79.1274 97.869V92.9052H77.7248V91.8473H79.1274V89.9091H80.4444ZM84.8589 99.8518H83.5415V91.8473H84.8589V99.8518ZM83.4347 89.7239C83.4347 89.5022 83.4989 89.3147 83.627 89.1617C83.7599 89.0087 83.9544 88.9326 84.2107 88.9326C84.4673 88.9326 84.6618 89.0087 84.7946 89.1617C84.9275 89.3147 84.9939 89.5022 84.9939 89.7239C84.9939 89.9459 84.9275 90.1308 84.7946 90.2789C84.6618 90.4267 84.4673 90.5009 84.2107 90.5009C83.9544 90.5009 83.7599 90.4267 83.627 90.2789C83.4989 90.1308 83.4347 89.9459 83.4347 89.7239ZM89.5152 97.995L91.423 91.8473H92.7689L90.0064 99.8518H89.0023L86.2116 91.8473H87.5571L89.5152 97.995ZM97.1332 99.9999C96.089 99.9999 95.2394 99.6448 94.5843 98.9345C93.9293 98.2193 93.6019 97.2649 93.6019 96.0715V95.8199C93.6019 95.026 93.7466 94.3183 94.0361 93.6969C94.3302 93.0702 94.7385 92.5819 95.2607 92.232C95.7877 91.8769 96.3572 91.6991 96.9693 91.6991C97.9709 91.6991 98.7494 92.0419 99.3049 92.7274C99.86 93.413 100.138 94.3944 100.138 95.6718V96.2414H94.9189C94.938 97.0309 95.1586 97.6695 95.5812 98.1578C96.0082 98.6408 96.5496 98.8827 97.2043 98.8827C97.6695 98.8827 98.0637 98.7841 98.3863 98.5868C98.709 98.3896 98.9916 98.1282 99.2338 97.8027L100.038 98.4537C99.3926 99.4843 98.4242 99.9999 97.1332 99.9999ZM96.9693 92.8238C96.438 92.8238 95.9916 93.026 95.631 93.4302C95.2701 93.83 95.0471 94.3922 94.9619 95.1171H98.8205V95.0136C98.7826 94.3183 98.6022 93.7805 98.2795 93.4006C97.9568 93.0162 97.5201 92.8238 96.9693 92.8238Z" fill="#61DAFB"/>
</svg>
